<svg width="1920" height="315" viewBox="0 0 1920 315" fill="none" xmlns="http://www.w3.org/2000/svg">
<path d="M1842 0.41629C1842 1.08304 1840.7 1.34976 1838.75 0.949707C1837.13 0.549622 1835.51 0.816345 1835.51 1.48312C1835.51 2.28323 1831.3 2.95001 1826.11 2.95001C1815.73 2.95001 1812.16 5.08368 1815.08 9.88446C1817.03 12.6849 1816.7 12.8183 1811.84 11.0847C1807.95 9.88446 1806.32 9.7511 1806.32 10.8179C1806.32 11.7514 1804.7 12.0181 1803.08 11.6181C1800.81 10.9513 1800.16 12.5515 1801.14 16.2855C1802.76 21.353 1802.11 21.753 1795.62 21.6197C1782.65 21.0862 1780.38 21.6197 1780.38 24.6868C1780.38 26.4204 1776.16 29.4876 1770.98 31.4879C1762.87 34.6884 1761.9 35.6219 1765.79 37.0888C1768.06 38.1557 1771.3 38.9558 1772.92 38.9558C1774.54 38.9558 1779.08 39.8893 1782.98 41.0894C1788.81 42.8231 1789.79 43.6232 1786.54 45.0901C1783.62 46.557 1783.62 46.9571 1786.87 46.9571C1790.11 46.9571 1790.11 47.3571 1786.87 48.9574C1783.62 50.5576 1783.95 50.9577 1788.16 50.9577C1791.41 50.9577 1792.7 51.6245 1791.41 52.4246C1790.43 53.2247 1791.08 54.4249 1793.68 54.9583C1802.11 57.2254 1799.19 61.3594 1786.22 64.2932C1772.92 67.3603 1767.41 66.9603 1767.41 62.8263C1767.41 60.0258 1754.76 59.0923 1754.11 61.8928C1754.11 62.8263 1752.82 62.4262 1751.19 60.9593C1748.28 58.1589 1746.65 60.0258 1747.95 64.8266C1748.6 67.0936 1747.95 67.0936 1741.47 64.5599C1736.28 62.5596 1735.3 61.226 1737.57 59.3591C1740.82 56.692 1734.66 50.2909 1730.11 52.0245C1728.49 52.558 1728.82 52.0245 1730.44 50.9577C1731.74 49.8909 1733.68 47.8905 1734.01 46.4236C1734.98 44.29 1734.33 44.1566 1730.11 45.6235C1723.95 47.7572 1722.33 47.0904 1720.71 41.7562C1719.09 36.022 1716.49 35.2219 1712.6 39.4892C1710.66 41.3562 1707.74 42.9564 1705.79 42.9564C1703.85 42.9564 1702.55 44.0233 1703.2 45.2234C1703.85 46.9571 1702.23 47.4905 1697.04 47.3571C1689.9 46.9571 1687.96 48.2906 1688.93 53.6248C1688.93 54.5583 1686.34 56.5586 1682.77 57.7588C1678.23 59.3591 1676.93 60.9593 1678.55 64.1598C1679.85 66.4268 1682.12 68.6939 1683.42 69.0939C1689.58 70.6942 1685.69 72.1611 1672.71 72.9612C1660.72 73.8947 1659.74 74.1614 1664.93 75.6283C1667.85 76.5618 1670.12 77.8954 1669.47 78.4288C1668.82 79.0956 1672.39 79.8957 1677.25 80.2957C1688.61 81.0959 1685.04 83.8963 1671.74 84.6964C1662.66 85.2299 1662.34 85.3632 1669.47 86.2967C1673.36 86.8301 1676.61 88.1637 1676.61 89.0972C1676.61 90.164 1678.23 90.9641 1679.85 90.9641C1681.8 90.9641 1683.09 91.4975 1683.09 92.1643C1683.09 92.8311 1680.17 93.0978 1676.61 92.6977C1671.74 92.1643 1670.12 92.6977 1670.12 94.8314C1670.12 96.2983 1669.15 97.6319 1667.85 97.7652C1666.23 97.7652 1662.01 98.0319 1658.12 98.1653C1653.91 98.432 1649.69 98.832 1648.72 99.2321C1645.15 100.832 1661.04 105.233 1670.77 105.366C1684.71 105.5 1689.58 107.9 1679.52 109.5C1674.98 110.301 1673.69 110.834 1676.61 110.967C1679.2 111.101 1675.63 112.301 1668.5 113.768L1655.53 116.302L1666.23 115.901C1672.07 115.635 1677.58 115.901 1678.23 116.435C1679.2 116.968 1683.09 117.102 1686.66 116.702C1691.85 116.168 1693.15 116.435 1692.17 117.768C1691.52 118.835 1686.66 119.902 1681.47 120.035C1669.47 120.702 1662.66 124.169 1667.85 126.837C1671.09 128.437 1670.12 128.57 1662.99 127.77C1657.47 127.237 1653.91 127.503 1653.91 128.303C1653.91 128.97 1655.2 129.637 1657.15 129.637C1662.66 129.637 1659.09 132.971 1652.93 133.638C1645.15 134.571 1646.12 136.971 1653.91 136.838C1657.47 136.838 1660.39 137.238 1660.39 137.905C1660.39 138.438 1658.45 138.972 1656.5 138.972C1654.23 138.972 1649.37 139.905 1646.12 140.972C1639.64 142.972 1639.64 142.972 1646.12 144.973C1651.96 146.84 1651.96 146.84 1644.18 146.973L1636.07 147.106L1642.88 149.373C1646.45 150.707 1649.04 152.441 1648.07 153.374C1647.42 154.308 1650.34 154.974 1656.18 154.974L1665.26 155.108L1655.53 156.841L1645.8 158.575L1654.88 159.508C1662.34 160.175 1663.31 160.842 1660.39 162.309C1658.45 163.242 1652.61 164.709 1647.42 165.376L1638.02 166.71L1639.31 161.375C1640.29 157.375 1639.64 156.441 1636.72 157.508C1633.8 158.442 1632.5 158.175 1632.5 156.175C1632.5 154.841 1633.48 153.641 1634.77 153.641C1636.07 153.641 1636.39 152.441 1635.42 150.974C1634.45 149.507 1632.5 148.707 1630.88 149.107C1629.26 149.507 1627.96 149.24 1627.96 148.44C1627.96 147.773 1629.58 146.706 1631.2 146.306C1633.15 145.773 1633.48 144.706 1632.18 143.906C1630.56 142.972 1629.58 141.105 1629.26 139.639C1628.61 132.437 1623.75 124.169 1621.15 125.77C1619.53 126.837 1619.21 128.703 1620.18 129.904C1621.15 131.237 1620.18 132.304 1617.91 132.304C1615.31 132.304 1615.31 132.971 1618.56 134.571C1621.15 135.771 1621.48 136.438 1619.21 135.905C1616.61 135.238 1615.64 136.971 1616.61 142.306C1617.26 147.907 1616.29 149.64 1612.72 149.64C1609.15 149.64 1609.15 150.174 1611.75 152.307C1614.02 154.041 1614.02 154.974 1612.07 154.974C1610.13 154.974 1609.8 156.041 1610.77 157.241C1612.4 158.975 1611.75 159.242 1606.88 158.442C1601.05 157.508 1601.05 157.641 1606.88 160.309C1612.07 162.709 1612.4 163.376 1608.5 164.309C1605.91 165.109 1602.99 165.643 1602.02 165.643C1601.05 165.643 1600.07 166.843 1600.07 168.176C1600.07 169.643 1601.37 170.444 1602.67 170.177C1603.96 169.777 1603.96 170.844 1602.34 172.577C1600.4 174.978 1601.37 176.178 1606.56 178.178C1613.04 180.578 1613.04 180.712 1606.88 179.645C1603.32 179.112 1597.48 178.311 1593.91 177.911C1587.43 177.245 1587.43 177.245 1593.59 180.178C1599.75 182.979 1599.75 182.979 1593.91 182.179C1589.37 181.379 1588.72 181.645 1590.99 183.112C1592.29 184.179 1593.26 186.046 1592.94 187.246C1592.29 188.58 1593.59 189.647 1595.21 189.647C1597.15 189.647 1598.78 190.58 1598.78 191.647C1598.78 192.714 1596.83 193.647 1594.24 193.647C1591.32 193.647 1590.34 194.847 1590.99 197.248C1591.97 200.715 1588.07 202.982 1580.94 202.982C1579.32 202.982 1579.97 202.315 1582.56 201.649C1585.8 200.848 1586.13 200.315 1583.53 200.315C1581.26 200.315 1579.32 199.115 1579.32 197.781C1579.32 196.314 1581.26 194.981 1583.53 194.581C1585.48 194.314 1586.45 193.514 1585.16 192.98C1583.86 192.447 1580.29 192.714 1577.05 193.781C1573.8 194.847 1575.43 193.381 1580.61 190.447L1590.02 185.379L1580.61 187.78C1575.75 189.247 1572.51 189.513 1574.13 188.58C1575.43 187.646 1574.78 185.913 1572.51 184.712C1569.91 183.646 1567.97 180.712 1567.97 178.311C1567.64 175.778 1566.02 172.977 1563.75 171.91C1561.48 170.977 1560.51 169.643 1561.48 169.11C1562.45 168.71 1561.81 168.71 1560.18 169.243C1558.24 169.91 1556.29 172.044 1555.32 174.177C1554.35 176.311 1551.75 178.578 1549.48 179.245C1545.27 180.178 1548.51 180.845 1555 180.312C1556.62 180.178 1555.64 181.245 1552.73 182.579C1545.92 185.646 1545.27 187.113 1550.46 188.446C1553.05 189.113 1550.46 189.78 1542.67 190.313C1536.19 190.847 1531.65 191.78 1532.62 192.447C1533.59 193.114 1535.86 193.381 1537.48 192.98C1539.11 192.58 1539.43 193.114 1538.46 194.314C1537.16 195.514 1534.24 196.181 1531.65 195.781C1529.05 195.381 1528.08 195.648 1529.05 196.314C1530.02 197.114 1533.27 197.648 1535.86 197.648C1539.75 197.648 1541.05 198.448 1540.08 201.115C1540.08 201.649 1541.7 202.582 1544.29 203.115C1547.54 204.049 1547.54 204.316 1544.29 204.316C1542.02 204.316 1541.05 204.849 1542.02 205.649C1543 206.316 1542.35 206.983 1540.4 206.983C1538.46 206.983 1537.81 207.649 1539.11 208.583C1540.73 209.65 1539.75 209.783 1536.19 209.25C1529.05 208.183 1529.05 210.85 1536.51 213.117C1541.7 214.851 1541.7 214.851 1535.86 214.984C1530.67 214.984 1530.35 215.251 1534.24 217.251C1538.46 219.251 1537.81 219.385 1529.05 218.718L1519.32 217.918L1527.11 220.452C1531.32 221.785 1532.94 222.985 1530.67 222.985C1528.4 222.985 1527.43 223.919 1528.73 224.986C1529.7 226.186 1528.73 226.986 1526.13 226.986C1520.62 226.986 1513.81 220.585 1516.08 217.518C1517.38 216.051 1516.73 214.984 1514.78 214.984C1512.84 214.984 1512.19 213.917 1513.49 212.584C1514.46 211.383 1514.13 210.85 1512.51 211.383C1510.89 212.05 1508.3 210.583 1506.35 208.183C1504.41 205.783 1500.84 203.515 1498.57 203.249C1496.62 202.982 1495 203.249 1495.33 203.916C1495.65 204.449 1495 206.183 1493.7 207.649C1492.08 209.116 1490.46 211.117 1489.81 212.184C1488.52 213.65 1487.22 213.65 1482.68 211.783C1474.89 208.983 1469.71 209.116 1468.41 211.917C1467.44 214.05 1466.46 213.917 1459.98 211.25C1453.17 208.45 1444.09 207.116 1447.65 209.516C1448.63 210.183 1447.33 210.983 1444.74 211.517C1441.49 212.05 1438.9 210.583 1436.3 206.583C1434.03 203.515 1431.11 200.448 1429.49 199.648C1428.2 198.981 1426.9 197.381 1426.9 196.181C1426.9 193.514 1416.52 185.646 1412.95 185.646C1411.66 185.646 1411.01 186.446 1411.33 187.246C1411.98 188.18 1409.71 188.846 1406.79 188.58C1402.9 188.313 1400.31 189.38 1399.01 191.647C1398.04 193.514 1395.44 194.981 1393.82 194.981C1391.88 194.981 1391.23 195.914 1392.52 196.981C1393.5 198.048 1393.17 198.981 1391.88 198.981C1390.58 198.981 1388.96 200.048 1388.63 201.248C1387.98 204.582 1385.39 210.317 1384.74 210.317C1384.42 210.317 1383.77 211.65 1382.79 213.384C1382.15 214.984 1383.77 217.918 1386.69 219.651C1391.55 222.719 1391.55 222.985 1386.69 222.985C1383.77 222.985 1381.5 224.052 1381.5 225.252C1381.5 227.119 1380.85 227.253 1378.58 225.919C1375.01 223.519 1373.07 225.652 1372.09 233.654C1371.44 239.255 1367.55 242.988 1362.04 242.988C1358.8 242.988 1355.88 239.788 1353.61 233.787C1352.64 231.12 1349.72 228.186 1347.45 227.119C1343.56 225.519 1342.58 225.786 1340.96 228.72C1339.66 230.72 1337.39 231.92 1335.77 231.653C1334.47 231.253 1332.2 234.054 1330.91 237.921C1328.96 243.789 1327.99 244.455 1326.04 241.655C1324.42 239.388 1323.77 239.121 1323.45 240.721C1323.12 242.055 1321.83 242.855 1320.21 242.322C1316.96 241.522 1315.02 243.389 1311.77 251.657C1309.18 257.657 1305.94 256.324 1302.05 247.656C1299.78 242.722 1299.13 242.588 1297.18 245.656C1295.56 247.523 1294.26 248.056 1293.94 246.989C1293.61 245.922 1292.32 246.456 1291.02 248.323C1289.07 251.39 1288.1 251.123 1279.99 244.322C1275.13 240.321 1270.26 234.587 1268.64 231.653L1266.05 226.319L1263.45 233.654C1261.83 237.654 1260.21 240.188 1259.24 239.255C1258.27 238.454 1256 238.054 1254.37 238.454C1252.43 238.988 1251.78 238.721 1253.08 237.921C1254.05 237.121 1253.73 236.187 1251.78 235.654C1250.16 235.254 1246.92 236.054 1244.65 237.654C1239.46 241.121 1232.32 241.121 1232.32 237.654C1232.32 236.187 1230.7 234.987 1228.75 234.987C1227.13 234.987 1226.16 234.454 1227.13 233.787C1228.43 233.12 1227.78 232.32 1225.84 232.053C1223.89 231.787 1221.94 229.52 1220.97 226.986C1220 224.452 1218.7 219.918 1217.73 217.118C1215.46 210.317 1212.86 209.25 1212.54 215.117C1211.89 224.319 1207.68 236.187 1204.76 237.388C1200.87 238.988 1197.3 235.521 1198.27 231.12C1198.92 226.719 1198.27 225.919 1194.06 226.586C1190.16 227.253 1189.51 226.719 1190.81 224.586C1192.11 222.985 1191.78 221.918 1190.16 222.318C1188.87 222.719 1186.92 222.052 1185.95 221.118C1184.97 220.051 1185.62 218.851 1187.89 218.451C1190.81 218.051 1190.81 217.518 1188.22 216.718C1186.27 216.184 1184.97 214.317 1185.3 212.584C1185.62 210.983 1184.33 209.65 1182.7 209.65C1181.08 209.65 1180.43 208.45 1181.41 206.983C1182.38 205.116 1181.41 204.316 1178.16 204.316C1174.6 204.316 1173.95 203.916 1176.54 202.582C1179.14 201.382 1178.49 200.048 1174.27 197.781C1169.08 194.981 1168.11 194.847 1163.25 196.981C1160.33 198.181 1157.41 200.315 1157.41 201.782C1156.76 205.516 1156.44 206.183 1153.19 208.05C1150.28 210.05 1150.28 209.917 1159.36 212.184C1162.92 213.117 1163.57 213.517 1160.98 213.25C1154.17 212.584 1148.98 215.117 1145.09 221.118C1141.52 226.719 1137.95 235.521 1137.95 239.388C1137.95 240.588 1136.65 241.388 1135.36 241.121C1134.06 240.721 1133.41 242.322 1134.06 244.722C1135.03 248.456 1134.71 248.589 1131.79 245.922C1130.17 244.322 1127.25 242.988 1125.63 242.988C1124.01 242.988 1121.74 241.655 1121.09 239.921C1120.12 237.921 1119.47 238.321 1119.14 241.388C1118.82 245.255 1117.85 245.656 1112.33 244.989C1107.14 244.322 1105.85 244.722 1105.85 247.389C1105.85 250.323 1096.12 255.657 1096.12 252.857C1095.79 252.19 1093.85 253.123 1091.25 254.99L1087.04 258.324L1083.47 254.59C1081.52 252.457 1079.9 250.19 1079.9 249.523C1079.9 248.856 1078.61 248.323 1076.66 248.323C1075.04 248.323 1073.42 249.79 1073.42 251.523C1073.42 253.39 1072.12 255.257 1070.17 255.657C1068.23 256.191 1066.93 254.19 1066.93 250.723C1066.93 246.456 1065.96 245.522 1063.69 246.989C1061.74 248.056 1061.09 250.723 1062.07 252.99C1063.69 256.324 1063.36 256.591 1060.45 254.59C1055.58 251.39 1051.04 251.79 1053.31 255.257C1054.28 257.124 1053.96 257.791 1051.37 257.124C1049.1 256.591 1047.47 256.991 1047.15 257.924C1046.5 261.791 1038.72 248.189 1038.07 241.922C1037.74 240.988 1036.12 240.588 1034.18 241.121C1032.23 241.522 1031.26 243.922 1031.91 246.322C1033.53 252.057 1028.99 250.99 1026.07 244.989C1025.1 242.455 1021.85 239.655 1019.26 238.854C1015.37 237.388 1014.72 238.321 1016.02 245.922C1016.99 250.856 1018.29 255.257 1019.26 255.924C1021.53 257.391 1010.18 267.259 1007.59 266.059C1006.29 265.659 1005.32 263.792 1005.32 262.058C1005.32 258.858 1000.45 257.791 997.856 260.591C997.208 261.525 995.586 259.124 994.289 255.257C992.668 251.523 990.398 248.323 989.1 248.323C987.479 248.323 984.56 250.456 982.615 252.99C979.372 256.991 978.399 257.391 974.183 255.791C971.589 254.724 969.643 252.723 969.643 251.39C969.318 249.79 968.021 250.323 965.103 252.99L960.887 256.991L958.617 253.657C957.644 251.79 954.725 246.722 952.131 242.322C947.591 234.32 947.591 234.32 946.942 239.655C945.969 244.722 945.645 245.922 943.699 248.989C941.753 251.657 941.105 252.99 940.78 254.857C940.132 257.791 937.213 255.791 935.267 251.523C932.673 244.589 929.754 243.389 927.484 247.656L925.214 251.657L922.944 247.656C920.998 244.722 918.404 243.522 913.215 243.255C907.054 243.122 905.432 244.189 900.568 251.39C895.055 259.925 882.407 271.66 882.083 268.593C882.083 267.259 880.462 267.392 876.57 269.126C871.381 271.26 870.733 271.126 866.193 266.859C859.382 260.725 860.031 260.858 854.842 263.658C850.951 265.925 850.626 265.792 848.356 262.458C845.762 258.191 839.925 259.124 839.925 263.792C839.925 265.792 837.979 266.992 835.06 266.992C832.466 266.992 830.196 266.192 830.196 265.125C830.196 264.059 828.574 262.725 826.629 262.325C822.088 261.125 812.035 266.992 813.332 269.926C813.981 271.26 812.684 272.326 811.062 272.326C809.117 272.326 807.495 271.26 807.171 269.926C807.171 268.059 806.522 268.059 804.252 270.326C801.982 272.46 801.333 272.593 801.333 270.726C801.009 269.526 799.063 267.926 796.469 267.392C793.875 266.859 791.28 264.725 790.632 262.725C789.335 258.991 784.794 255.924 784.794 258.724C784.794 259.658 783.173 260.325 781.227 260.325C779.281 260.325 778.309 259.124 779.281 257.657C780.254 256.324 778.633 254.324 776.038 253.523C772.471 252.19 771.174 252.457 769.553 254.857C767.931 257.657 761.445 258.324 761.769 255.657C761.769 254.857 759.499 253.79 756.905 253.257C754.311 252.59 753.013 251.657 753.986 250.856C758.527 248.056 758.202 244.322 753.662 244.322C751.068 244.322 749.122 243.122 749.122 241.655C749.122 238.988 742.96 238.588 738.745 240.988C737.447 241.655 735.502 241.121 734.204 239.655C732.583 238.188 733.232 236.988 735.502 236.587C737.772 236.321 738.745 235.521 737.772 234.987C736.799 234.32 738.745 232.987 742.312 232.053C746.203 230.853 747.825 229.52 746.203 228.586C744.258 227.253 742.636 227.386 739.393 228.853C735.502 230.987 729.664 230.586 729.664 228.319C729.664 227.653 732.259 227.519 735.177 227.919C740.042 228.72 740.366 228.453 736.799 226.719C733.88 225.119 733.556 224.319 736.15 223.652C738.745 222.985 738.096 221.918 734.204 220.185C729.989 218.318 729.664 217.651 732.907 217.651C736.474 217.651 736.474 217.251 733.556 216.051C730.313 214.717 728.691 214.717 726.421 216.318C723.827 218.051 723.178 218.051 721.881 216.318C719.935 213.784 716.692 206.983 715.72 203.649C715.071 202.182 713.774 200.182 712.152 199.248C710.855 198.315 711.504 196.714 713.449 195.648C715.72 194.581 716.044 193.647 714.422 193.647C712.801 193.647 711.179 192.714 710.855 191.647C710.531 190.58 709.882 188.713 709.558 187.646C709.234 186.579 707.612 185.646 705.991 185.646C704.369 185.646 704.694 184.712 706.964 183.646C709.882 182.179 709.882 181.645 707.288 181.645C705.018 181.645 703.721 180.845 704.045 179.912C704.694 178.445 703.072 175.111 698.208 167.776C695.938 164.576 691.073 166.71 690.1 171.377C689.776 173.377 688.479 174.978 687.182 174.978C684.587 174.978 685.236 178.578 688.154 179.645C689.127 180.178 688.154 182.045 685.56 184.046C682.966 186.046 681.02 189.647 681.02 191.914C681.02 197.248 674.858 197.248 668.372 191.914C666.102 189.913 661.562 188.313 658.644 188.313C645.347 188.313 641.456 184.712 637.24 168.31C636.592 165.776 634.646 160.442 632.7 156.441C630.754 152.574 629.133 149.107 629.133 148.84C629.133 148.573 627.836 148.307 625.89 148.307C624.268 148.307 622.647 150.307 622.647 152.707C622.647 155.241 621.674 157.641 620.377 158.175C619.08 158.708 617.782 164.176 617.782 170.444C617.458 178.045 615.837 182.179 613.242 182.846C610.972 183.512 609.675 184.446 610.324 184.979C610.648 185.646 608.702 186.179 605.783 186.446C599.946 186.713 598.649 185.646 599.622 181.245C599.946 180.045 598.649 178.978 596.703 178.978C594.757 178.978 593.46 176.978 593.46 174.578C593.785 170.31 584.056 151.774 581.786 152.707C581.137 152.974 579.84 155.508 578.543 158.442C576.273 165.109 570.76 167.643 570.76 162.042C570.76 159.775 569.787 156.041 568.814 153.641C566.219 148.307 561.031 150.84 561.031 157.641C561.031 160.175 559.085 164.976 556.815 168.31C554.221 171.644 552.923 175.911 553.248 177.911C553.896 180.045 552.923 181.645 550.978 181.645C549.356 181.645 548.059 182.312 548.059 183.112C548.059 183.779 549.356 184.179 550.653 183.779C551.95 183.512 553.248 184.312 553.248 185.646C553.248 186.979 551.302 187.78 549.032 187.38C546.762 186.979 544.816 187.246 544.816 188.046C544.816 188.713 546.762 189.647 549.356 190.047C553.896 190.847 554.545 194.047 550.329 195.781C549.356 196.314 548.708 195.381 549.68 193.781C550.329 192.314 549.68 190.98 547.735 190.98C546.113 190.98 544.816 191.914 544.816 193.114C544.816 194.181 543.195 194.714 541.249 194.181C539.303 193.781 540.276 194.981 543.519 197.114C548.708 200.315 549.032 200.715 544.492 200.048C540.276 199.381 539.303 199.782 540.6 201.782C541.573 203.115 540.276 205.382 538.006 206.583C534.763 208.183 534.763 208.45 537.681 207.783C539.627 207.249 541.573 207.516 541.573 208.183C541.573 208.983 539.303 209.65 536.709 209.65C534.114 209.65 531.844 210.45 531.844 211.517C531.844 213.65 523.088 215.384 520.494 213.784C519.521 213.117 521.142 212.184 524.061 211.783C526.98 211.25 528.601 210.583 527.628 210.183C526.655 209.65 528.601 208.183 531.844 206.583C540.276 202.849 536.709 201.248 525.358 203.649C512.711 206.316 512.386 206.316 512.386 201.248C512.386 198.315 511.414 197.515 509.468 198.848C507.846 199.915 505.901 200.048 504.603 199.248C502.009 197.381 513.684 192.314 520.818 192.18C524.71 192.18 525.358 191.914 522.764 191.38C519.521 190.847 520.494 190.047 526.007 188.446C529.898 187.246 533.79 184.846 534.439 183.112C535.087 180.445 534.439 180.178 530.223 181.645C526.007 182.979 525.358 182.846 525.358 180.445C525.358 176.978 520.494 176.845 515.629 179.912C512.711 181.779 512.386 181.245 514.008 176.978C514.981 174.044 516.278 170.444 516.927 168.843C517.575 167.376 518.872 165.376 520.17 164.576C521.467 163.642 520.818 162.976 518.872 162.976C516.927 162.976 514.656 163.909 513.684 164.976C512.386 166.043 510.116 166.976 508.171 166.976C505.901 166.976 505.901 166.443 508.495 165.376C510.765 164.443 512.386 162.576 512.386 161.109C512.062 158.575 512.062 158.575 508.819 160.575C507.198 161.909 504.279 162.976 502.658 162.976C501.036 162.976 502.333 161.109 505.252 158.975C509.143 156.175 509.792 154.574 507.198 153.908C505.252 153.374 502.658 151.774 501.36 150.307C499.415 148.173 498.442 148.04 496.172 149.64C493.577 151.24 492.929 150.974 492.929 148.707C492.929 146.706 491.307 145.906 488.389 146.44C484.821 146.973 484.173 146.44 485.47 144.439C486.767 142.306 486.119 141.772 482.227 142.439C478.011 142.972 477.687 142.439 479.957 138.438C481.254 135.905 481.254 133.638 479.633 133.371C478.335 133.104 476.39 131.504 475.417 129.637C470.877 120.169 469.255 117.502 466.661 116.835C465.039 116.435 463.742 117.635 463.742 119.502C463.742 121.369 462.121 122.969 460.175 122.969C457.905 122.969 457.256 124.303 458.553 126.17C459.526 128.037 458.878 130.17 456.608 131.237C452.068 133.104 451.743 133.504 445.906 143.639C442.987 148.973 441.69 149.64 439.42 147.64C438.123 146.173 436.501 144.173 435.853 143.106C432.934 136.838 430.664 134.971 426.448 134.971C423.205 134.971 421.584 136.438 421.584 139.505C421.584 142.039 419.962 144.573 418.341 144.973C416.395 145.506 415.746 146.306 416.719 146.973C417.692 147.64 417.044 148.44 415.098 148.973C413.476 149.373 411.855 149.64 411.855 149.373C408.288 138.038 404.072 132.971 398.559 134.304C396.937 134.838 395.64 136.571 395.64 138.305C395.64 143.506 387.208 140.839 386.884 135.638C386.56 127.37 382.344 120.969 379.101 123.103C377.48 124.169 376.182 126.57 376.182 128.57C376.182 130.704 374.237 132.304 372.291 132.304C369.697 132.304 367.751 134.304 367.426 136.971C367.102 139.505 366.454 142.572 366.129 143.639C365.156 146.44 356.725 146.173 356.4 143.239C356.076 142.039 355.752 140.305 355.103 139.639C354.779 138.838 354.13 137.105 353.482 135.638C352.833 134.171 351.536 135.638 350.563 138.838C349.59 142.172 346.672 144.973 344.077 145.373C341.159 145.773 340.51 145.106 342.131 143.106C343.429 141.372 342.78 140.305 340.51 140.305C334.348 140.305 331.105 134.571 335.97 132.171C341.807 129.504 341.807 127.77 335.646 128.703C333.051 129.237 330.133 128.97 329.16 128.303C327.862 127.503 328.835 126.97 331.105 126.97C333.7 126.97 333.7 126.436 330.781 124.97C328.511 123.903 327.862 122.969 329.484 122.969C331.105 122.969 330.133 122.169 327.214 121.236C324.295 120.302 322.349 117.635 322.674 114.301C322.998 108.034 318.134 100.299 313.593 100.299C311.972 100.299 311.323 101.232 312.621 102.299C313.593 103.366 312.945 104.3 311.323 104.3C309.702 104.3 308.729 106.433 309.053 109.1C309.378 111.767 308.08 114.168 306.459 114.435C304.513 114.701 303.216 113.368 302.892 111.367C302.567 104.433 297.379 93.6312 294.784 93.6312C293.163 93.6312 291.866 94.5647 291.866 95.7649C291.866 97.3651 290.893 97.6319 287.65 96.565C284.407 95.3648 282.461 96.2983 279.542 100.966C277.597 104.166 276.624 107.767 277.597 108.967C278.894 110.167 277.921 110.967 274.678 110.967C270.462 110.967 270.138 111.767 272.408 114.968C274.354 117.902 274.029 119.502 270.786 120.702C267.219 122.036 267.219 122.703 271.111 124.436C277.272 127.237 273.381 131.371 265.598 130.57C258.139 129.77 257.815 130.17 264.625 132.837C267.544 134.038 268.192 134.971 265.922 134.971C258.139 134.971 266.895 137.638 275.002 137.772C283.758 137.905 283.758 137.905 274.029 138.838C263.976 139.639 260.733 143.239 266.895 146.573C269.165 147.773 268.192 148.307 264.625 148.307C261.382 148.307 260.085 148.973 261.382 149.774C262.679 150.84 261.058 150.974 255.869 150.44C248.41 149.507 248.41 149.507 254.247 151.507C257.815 152.707 262.031 153.641 263.328 153.641C264.949 153.641 265.922 154.708 265.273 155.908C264.625 157.641 266.571 158.308 271.435 158.308C275.002 158.308 279.218 158.708 280.515 159.242C281.813 159.775 275.327 160.042 266.246 159.775C253.275 159.642 250.68 159.908 253.599 161.242C255.545 162.176 259.436 162.976 262.355 162.976C266.571 162.976 266.895 163.242 263.003 164.176C260.085 164.976 255.869 164.976 252.302 164.176C248.086 163.242 246.464 163.376 246.464 164.576C246.464 166.976 256.193 169.243 265.273 168.977C270.462 168.843 271.759 169.11 269.165 170.177C267.544 170.844 262.031 171.51 256.842 171.644C250.356 171.644 247.762 172.444 247.113 174.578C246.14 176.978 247.762 177.645 252.95 177.645C259.112 177.645 269.165 180.445 269.165 182.045C269.165 182.445 263.652 182.445 256.518 182.045C247.437 181.512 243.87 181.912 242.249 183.379C240.627 185.113 243.546 185.646 254.572 186.446C262.355 186.846 270.462 188.046 272.732 189.113C275.651 190.58 273.381 190.713 259.76 190.047C249.383 189.513 243.221 189.78 243.221 190.58C243.221 192.847 251.329 194.847 261.382 195.247C268.192 195.381 271.111 196.181 271.435 198.048C272.084 200.182 270.462 200.448 258.463 199.648C251.005 199.115 241.924 198.448 238.357 198.048C232.52 197.381 232.844 197.648 239.654 200.182C246.789 202.715 250.68 203.382 256.518 203.249C257.49 203.249 259.76 204.316 262.031 205.649C265.598 208.05 264.949 208.183 255.22 207.516C249.707 207.116 242.897 206.449 240.627 206.183C237.708 205.783 237.06 206.449 238.357 208.45C240.303 210.983 239.978 211.117 233.168 209.65L226.034 208.05L233.493 212.45C239.654 215.917 239.978 216.584 235.763 215.917C232.195 215.384 230.25 215.784 230.25 216.851C230.25 217.918 232.195 219.118 234.465 219.385C237.06 219.918 236.736 220.185 233.493 220.185C230.574 220.318 231.547 220.985 236.411 222.052C246.789 224.185 249.059 226.986 239.978 226.986C234.79 226.986 231.547 225.519 227.655 221.652C221.169 215.384 218.575 215.117 213.386 219.651C211.44 221.518 207.549 222.852 204.955 222.719C198.144 222.185 195.874 218.985 202.36 218.985C204.955 218.985 208.198 218.318 209.495 217.384C211.116 216.451 209.819 216.184 205.603 216.584C199.117 217.251 197.82 215.917 196.523 206.583C196.523 204.582 194.901 202.982 192.956 202.982C191.334 202.982 191.983 202.315 194.577 201.649C198.469 200.582 198.144 200.315 192.307 200.315C188.416 200.315 184.2 199.648 182.903 198.715C181.605 197.915 181.93 197.515 183.551 197.915C185.173 198.315 188.416 197.915 190.686 196.848C193.604 195.514 193.604 194.981 191.01 194.981C189.064 194.981 188.091 194.047 189.388 192.98C190.361 191.78 189.388 190.98 186.145 190.98C183.551 190.98 182.254 190.313 183.227 189.647C184.2 188.846 183.875 188.313 182.254 188.313C180.308 188.313 178.038 187.246 177.065 186.046C175.768 184.712 175.768 184.179 177.065 184.712C179.984 185.913 188.091 183.112 188.091 180.845C188.091 179.778 185.497 178.978 182.578 178.978C177.714 178.978 177.389 178.712 181.605 177.645C185.497 176.711 185.173 176.044 179.011 173.777C174.147 172.177 172.849 170.844 175.119 170.31C177.714 169.643 177.714 168.843 174.795 167.51C171.876 166.043 172.201 165.643 175.444 165.643C178.687 165.509 178.038 165.109 174.471 164.176C171.228 163.509 168.634 161.642 168.634 160.309C168.634 158.842 166.688 157.641 164.742 157.641C161.823 157.641 162.148 157.108 165.391 156.308C169.282 155.374 169.282 154.974 165.715 154.974C163.445 154.974 162.148 154.174 163.12 153.241C163.769 152.441 163.445 150.44 161.823 148.973C159.878 146.84 159.229 147.106 159.229 150.574C158.905 153.107 157.283 154.974 155.013 154.974C151.77 154.974 151.77 155.241 154.689 156.041C156.959 156.708 157.607 157.775 155.662 158.842C154.365 159.908 153.716 161.509 154.689 162.576C155.662 163.642 154.04 164.309 150.473 164.309C145.609 164.309 145.284 164.576 148.852 165.509C152.419 166.443 152.419 166.71 148.852 167.376C145.609 167.91 146.581 168.443 151.77 168.977C155.662 169.51 158.905 170.444 158.905 171.244C158.905 171.91 156.31 171.777 152.743 170.977C144.311 169.243 142.69 169.243 142.69 171.644C142.69 172.711 144.311 173.644 146.257 173.644C148.203 173.644 149.176 174.444 148.203 175.244C147.554 176.178 150.797 177.645 155.337 178.445C163.445 179.778 163.445 179.912 151.122 180.045C135.555 180.312 132.961 181.245 143.014 182.979C150.149 184.312 149.824 184.312 140.096 183.646C130.367 183.112 129.718 183.246 134.258 185.113C137.177 186.179 142.366 187.246 145.609 187.38C149.176 187.38 151.122 188.046 150.149 188.58C149.5 189.247 145.933 189.38 142.366 188.98C137.501 188.313 136.204 188.846 136.204 191.514C136.204 194.314 134.907 194.714 127.448 194.447C117.719 194.047 113.503 191.247 120.314 189.647C125.178 188.313 127.772 182.979 123.556 182.979C121.611 182.979 121.286 180.845 122.259 178.045C123.881 173.777 123.556 173.377 118.692 174.044C113.828 174.844 113.179 174.444 115.125 170.977C116.422 168.577 116.098 166.976 113.828 166.976C112.206 166.976 111.233 164.576 112.206 161.109C113.179 156.041 112.53 155.241 106.693 154.574C100.532 153.908 100.532 153.641 104.747 150.04C108.315 147.24 108.639 145.773 105.72 143.773C103.126 141.906 103.126 141.105 106.369 140.705C112.53 139.772 110.909 137.638 103.45 137.638C99.8829 137.638 97.9372 136.971 98.91 136.305C99.8829 135.505 99.2343 134.971 97.2886 134.971C95.3428 134.971 94.3699 134.438 95.3428 133.904C95.9914 133.371 94.6942 128.97 92.4241 124.303C90.1541 119.635 88.8569 115.101 89.8298 114.435C90.8027 113.768 90.1541 113.634 88.2083 114.168C85.6139 114.835 84.6411 113.768 85.6139 110.967C86.2625 108.7 85.6139 106.567 83.9925 106.167C82.6953 105.9 82.0467 104.7 83.0196 103.633C85.9382 100.566 78.1552 96.1649 70.3721 96.565C66.1562 96.8317 63.5619 96.2983 63.8862 95.2315C64.5348 94.4313 63.2376 93.6312 60.9675 93.6312C59.0217 93.6312 59.9946 92.6977 63.5619 91.6309C66.8048 90.5641 68.102 89.6306 65.8319 89.6306C63.8862 89.6306 62.2647 88.5637 62.589 87.2302C62.589 85.8966 60.9675 82.8295 58.6974 80.5625C55.1302 76.9619 53.5087 76.5618 49.6172 77.8954C47.0228 78.6955 45.7256 80.5625 46.3742 81.7626C47.3471 83.0962 46.0499 84.8298 43.4556 85.7633C39.8883 86.9635 39.8883 87.4969 44.1041 89.2305C48.32 91.0975 48.32 91.4975 43.4556 92.9644C39.2397 94.1646 38.9154 94.8314 42.1584 95.6315C45.077 96.4317 45.7256 96.1649 43.7799 94.9648C42.1584 93.8979 42.4827 93.4978 44.7527 94.1646C50.9143 95.7649 45.077 99.2321 37.6182 98.432C31.4566 97.7652 31.4566 98.0319 38.9154 100.432C45.077 102.566 45.4013 102.966 40.8612 102.433C35.6725 101.766 35.3482 101.899 38.9154 103.633C42.1584 105.233 41.8341 105.766 37.6182 106.433C34.6996 106.833 30.1595 106.567 27.8894 105.766C23.9978 104.433 23.6736 104.7 24.9707 106.833C25.9436 108.7 25.295 109.634 22.3764 109.634C19.4577 109.634 19.1334 110.034 21.4035 110.701C23.3493 111.234 27.2408 113.634 30.1595 116.168C33.4024 118.702 35.0239 120.436 33.7267 120.035C32.7538 119.502 28.8623 120.436 25.295 121.902C21.7278 123.369 17.8362 124.169 16.8634 123.636C15.5662 123.236 16.2148 122.436 18.1605 121.902C23.6736 120.436 25.9436 116.568 21.7278 115.901C19.782 115.635 17.8362 113.101 17.5119 110.167C17.1876 107.367 16.5391 104.3 16.5391 103.366C16.2148 102.433 14.269 102.033 11.6746 102.433C8.75597 102.833 5.83731 106.433 4.21584 111.367C1.62148 118.168 2.27007 120.035 6.16161 122.036C10.7017 124.303 10.7017 124.703 5.83731 126.17C1.94577 127.237 1.29718 128.303 3.56725 129.237C7.45879 130.837 10.3774 136.571 6.8102 135.638C0.972886 134.171 -0.324295 139.639 5.51302 141.506C10.7017 143.106 10.7017 143.239 5.83731 142.572C0.64859 141.772 0.324295 147.507 0 228.453V315H959.914H1919.83V227.119C1919.5 140.305 1919.5 139.239 1913.34 139.905C1909.13 140.305 1906.86 141.772 1906.86 143.639C1906.86 146.84 1900.05 148.707 1892.59 147.507C1889.02 146.973 1888.7 145.773 1890.97 142.572C1892.59 140.172 1893.88 138.172 1893.88 138.038C1893.88 137.905 1891.29 138.172 1888.37 138.572C1883.51 139.372 1883.18 139.105 1886.75 137.372C1889.67 135.905 1889.99 134.971 1887.4 134.304C1883.18 133.238 1877.67 134.704 1877.67 137.105C1877.67 138.172 1876.37 138.972 1874.43 138.972C1869.89 138.972 1870.21 138.038 1876.37 134.304C1879.94 132.037 1880.26 130.971 1877.99 130.971C1875.72 130.971 1875.07 130.17 1876.05 129.237C1877.35 128.437 1875.72 128.837 1872.48 130.304L1866.97 132.971L1869.56 130.304C1870.86 128.837 1872.48 126.837 1873.45 125.77C1875.07 124.303 1874.1 124.303 1867.62 125.77C1863.4 126.703 1859.18 127.503 1858.21 127.503C1857.24 127.637 1856.91 128.037 1857.24 128.57C1857.89 129.104 1855.94 129.237 1853.35 128.837C1850.75 128.303 1845.24 128.97 1841.02 130.037C1833.89 131.904 1833.57 131.904 1835.19 127.103C1836.16 122.703 1836.16 122.436 1830.65 124.303C1823.84 126.57 1815.4 126.837 1812.16 124.97C1810.54 124.169 1808.27 124.303 1806.65 125.636C1804.38 126.97 1805.03 128.303 1808.27 129.77C1814.43 132.571 1814.11 133.638 1806 133.638C1802.43 133.638 1796.6 134.971 1793.03 136.571C1789.79 138.305 1787.19 138.838 1786.87 137.905C1786.87 137.105 1788.49 136.305 1790.43 136.305C1793.03 136.305 1792.7 135.638 1790.11 134.304C1787.84 133.104 1783.95 132.437 1781.68 132.837C1779.41 133.238 1776.81 132.571 1775.84 131.504C1774.87 130.437 1772.27 129.77 1770 129.904C1764.17 130.437 1766.44 123.236 1772.6 120.702C1775.19 119.635 1777.14 119.102 1777.14 119.635C1777.14 120.035 1779.08 119.635 1781.68 118.702C1785.57 117.235 1785.25 116.835 1779.41 116.302C1773.25 115.635 1773.25 115.368 1778.11 113.368C1785.57 110.301 1784.92 107.767 1777.14 108.7C1770.33 109.367 1768.06 107.767 1773.89 106.3C1780.38 104.7 1773.57 102.966 1766.44 104.433C1761.57 105.633 1759.3 105.633 1758.33 104.566C1757.68 103.499 1754.44 103.766 1748.6 105.233L1739.84 107.5L1746.01 104.566C1749.57 102.966 1754.11 101.632 1756.38 101.632C1762.54 101.632 1773.89 97.4985 1773.89 95.2315C1773.89 94.298 1772.6 93.8979 1770.65 94.298C1769.03 94.698 1767.41 94.5647 1767.41 93.8979C1767.41 93.0978 1769.68 92.1643 1772.6 91.7642C1779.73 90.6974 1780.38 90.6974 1780.38 92.8311C1780.38 95.3648 1787.19 96.1649 1793.68 94.5647C1797.89 93.4978 1800.49 93.7646 1804.7 95.3648C1811.19 98.1653 1811.19 98.1653 1821.24 95.3648C1829.35 93.2311 1830 93.2311 1835.84 96.4317C1842.65 100.032 1843.94 106.967 1838.11 106.967C1835.84 106.967 1836.48 107.633 1839.73 108.434C1842.65 109.1 1845.24 110.567 1845.24 111.501C1845.24 112.568 1847.51 113.768 1850.43 114.168C1857.24 115.235 1856.91 115.235 1862.75 112.834C1868.59 110.567 1880.91 111.367 1880.91 114.168C1880.91 114.968 1883.83 115.768 1887.4 115.901C1890.97 116.035 1893.88 115.635 1893.88 114.968C1893.88 114.435 1896.48 114.168 1899.72 114.568C1903.61 114.968 1905.56 116.302 1905.23 118.702C1905.23 120.702 1906.53 122.703 1908.15 123.236C1913.67 124.836 1919.83 122.703 1919.83 119.369C1919.83 116.968 1918.53 116.168 1915.29 116.702C1912.04 117.235 1911.07 116.835 1912.37 115.501C1913.34 114.568 1915.29 113.634 1916.91 113.634C1921.77 113.634 1920.48 52.6913 1915.94 51.7578C1912.69 51.0911 1912.69 50.8243 1915.94 50.1576C1918.85 49.6241 1919.83 44.69 1919.18 31.2212C1918.85 21.2196 1918.21 15.2187 1917.56 17.8857C1916.91 20.5528 1913.99 23.4866 1911.4 24.2868C1908.8 25.2202 1906.86 26.9539 1906.86 28.1541C1906.53 30.021 1906.21 29.8877 1903.29 27.8874C1900.05 25.487 1899.4 25.487 1893.24 28.1541C1889.99 29.7543 1885.78 30.6878 1883.83 30.2877C1882.21 29.7543 1880.91 30.1544 1880.91 30.8211C1880.91 31.6213 1877.67 30.9545 1874.1 29.4876C1869.24 27.4873 1866.64 27.0872 1864.7 28.2874C1863.08 29.3542 1861.13 29.2209 1857.24 27.754C1851.73 25.3536 1843.62 24.8202 1846.86 26.9539C1849.46 28.6875 1841.02 28.0207 1838.11 26.2871C1836.81 25.6203 1840.38 23.0866 1845.89 20.6862C1855.29 16.6855 1855.94 16.0188 1851.73 12.9516C1848.48 10.4179 1848.16 8.81763 1850.75 6.5506C1853.67 3.88351 1853.35 2.95001 1848.16 1.2164C1844.92 0.0162048 1842 -0.38385 1842 0.41629ZM1756.06 92.1643C1753.14 93.2311 1744.38 93.4978 1746.33 92.431C1746.98 91.8976 1749.9 91.3642 1752.82 91.3642C1755.41 91.3642 1757.03 91.7642 1756.06 92.1643ZM70.3721 101.099C69.3992 101.499 66.4805 101.632 64.2105 101.232C61.6161 100.832 62.589 100.432 66.1562 100.432C69.7235 100.299 71.6692 100.699 70.3721 101.099ZM1715.52 126.436C1715.52 127.503 1714.22 128.037 1712.28 127.637C1710.66 127.237 1709.04 126.303 1709.04 125.503C1709.04 124.836 1710.66 124.303 1712.28 124.303C1714.22 124.303 1715.52 125.236 1715.52 126.436ZM1704.82 126.436C1703.85 126.837 1700.93 126.97 1698.66 126.57C1696.06 126.17 1697.04 125.77 1700.6 125.77C1704.17 125.636 1706.12 126.036 1704.82 126.436ZM1858.21 132.704C1858.21 132.837 1854 132.971 1848.81 132.971C1841.35 133.104 1839.73 132.704 1842.65 131.371C1844.92 130.17 1847.51 130.037 1852.05 131.104C1855.29 131.771 1858.21 132.571 1858.21 132.704ZM1694.12 137.505C1695.09 138.172 1693.79 139.105 1690.88 139.505C1682.12 140.972 1678.88 140.439 1683.09 138.305C1687.63 136.038 1691.52 135.771 1694.12 137.505ZM1674.98 140.305C1675.96 140.972 1675.31 141.639 1673.69 141.639C1671.74 141.639 1670.12 140.972 1670.12 140.305C1670.12 139.505 1670.77 138.972 1671.42 138.972C1672.39 138.972 1674.01 139.505 1674.98 140.305ZM277.597 142.306C283.434 144.039 283.434 144.173 276.3 143.373C272.408 142.972 268.192 142.172 267.219 141.506C264.625 139.639 270.462 140.039 277.597 142.306ZM1887.4 141.372C1887.4 142.039 1885.13 142.572 1882.53 142.572C1879.94 142.572 1878.64 142.039 1879.62 141.372C1880.59 140.839 1882.53 140.305 1884.48 140.305C1886.1 140.305 1887.4 140.839 1887.4 141.372ZM1698.33 144.973C1698.33 146.04 1696.39 146.973 1693.79 146.973C1686.34 146.973 1684.71 147.106 1680.82 148.573C1677.9 149.507 1676.61 149.507 1676.61 148.573C1676.61 147.24 1691.2 143.106 1696.39 142.972C1697.36 142.972 1698.33 143.906 1698.33 144.973ZM1874.43 144.306C1874.43 144.973 1872.16 145.64 1869.24 145.64C1866.64 145.64 1865.35 144.973 1866.32 144.306C1867.29 143.506 1869.56 142.972 1871.51 142.972C1873.13 142.972 1874.43 143.506 1874.43 144.306ZM1811.19 146.973C1812.49 147.773 1814.76 147.907 1816.7 147.507C1818.97 146.973 1819.3 147.24 1818 148.173C1816.05 149.373 1814.11 149.373 1810.22 148.04C1806.97 147.106 1804.05 146.173 1803.41 146.04C1802.76 145.773 1803.73 145.64 1805.68 145.64C1807.62 145.64 1810.22 146.306 1811.19 146.973ZM366.454 149.507C366.454 150.974 365.156 152.574 363.211 152.974C361.265 153.507 359.968 152.307 359.968 150.44C359.968 148.573 361.589 146.973 363.211 146.973C365.156 146.973 366.454 148.173 366.454 149.507ZM1811.19 152.307C1810.22 152.974 1807.3 153.641 1805.35 153.641C1803.08 153.641 1803.41 153.107 1806.32 152.307C1812.49 150.707 1813.78 150.707 1811.19 152.307ZM1684.39 153.908C1683.42 154.441 1681.47 154.974 1679.52 154.974C1677.9 154.974 1676.61 154.441 1676.61 153.908C1676.61 153.241 1678.88 152.707 1681.47 152.707C1684.07 152.707 1685.36 153.241 1684.39 153.908ZM1710.33 156.175C1711.31 156.841 1710.01 157.775 1707.09 158.175C1698.33 159.642 1695.09 159.108 1699.31 156.975C1703.85 154.708 1707.74 154.441 1710.33 156.175ZM1715.52 167.643C1715.52 168.71 1714.87 169.643 1714.22 169.643C1713.58 169.643 1710.33 170.043 1707.41 170.577C1702.55 171.244 1702.23 170.977 1705.47 168.577C1709.68 165.243 1715.52 164.709 1715.52 167.643ZM1659.74 170.043C1662.01 170.71 1662.99 172.444 1662.01 173.777C1660.72 175.378 1661.69 176.578 1664.61 177.111C1671.42 178.178 1669.47 181.512 1660.72 184.446C1654.23 186.579 1652.61 186.713 1648.72 185.113C1646.12 184.046 1644.18 182.445 1644.18 181.645C1644.18 180.845 1642.56 180.578 1640.29 181.112C1638.34 181.645 1639.96 179.778 1644.18 177.111C1650.99 172.444 1650.99 172.177 1645.47 173.377C1639.64 174.578 1638.99 174.311 1639.64 171.244C1639.96 169.243 1640.29 167.51 1640.61 167.243C1641.26 166.576 1655.2 168.577 1659.74 170.043ZM1730.11 182.979C1731.09 183.646 1729.79 184.312 1726.87 184.312C1723.95 184.312 1722.66 183.646 1723.63 182.979C1724.6 182.179 1726.22 181.645 1726.87 181.645C1727.52 181.645 1729.14 182.179 1730.11 182.979ZM142.69 201.115C141.717 201.782 139.123 202.182 137.177 202.182C134.258 202.049 133.934 202.582 136.528 204.449C138.15 205.916 141.068 206.983 143.014 206.983C144.96 206.983 145.284 207.516 144.311 208.316C143.338 208.983 140.744 209.65 139.123 209.65C137.177 209.65 136.853 208.983 137.825 208.316C138.798 207.516 138.474 206.983 136.853 206.983C133.61 206.983 126.475 198.181 129.07 196.981C131.664 195.914 144.636 199.782 142.69 201.115ZM1760.27 199.648C1759.3 200.048 1757.36 199.381 1756.38 198.048C1754.44 196.181 1754.76 196.048 1758 197.248C1760.27 198.181 1761.25 199.248 1760.27 199.648ZM269.165 203.515C269.165 203.916 267.868 204.582 265.922 204.982C264.301 205.382 262.679 205.116 262.679 204.449C262.679 203.649 264.301 202.982 265.922 202.982C267.868 202.982 269.165 203.249 269.165 203.515ZM1588.4 207.249C1590.99 208.583 1589.05 209.116 1579.97 209.383C1568.94 209.65 1568.62 209.516 1574.45 207.649C1582.56 205.249 1584.18 205.249 1588.4 207.249ZM134.583 216.318C135.555 216.984 134.907 217.651 133.285 217.651C131.34 217.651 129.718 216.984 129.718 216.318C129.718 215.517 130.367 214.984 131.015 214.984C131.988 214.984 133.61 215.517 134.583 216.318ZM1469.06 215.517C1469.06 215.917 1467.76 216.584 1465.81 216.984C1464.19 217.384 1462.57 217.118 1462.57 216.451C1462.57 215.651 1464.19 214.984 1465.81 214.984C1467.76 214.984 1469.06 215.251 1469.06 215.517ZM1156.44 221.918C1157.73 222.852 1157.41 222.985 1155.14 222.452C1152.87 221.918 1151.25 222.185 1151.25 223.119C1151.25 224.052 1150.28 224.452 1149.3 223.919C1147.36 223.252 1150.28 220.318 1152.87 220.318C1153.52 220.318 1155.14 220.985 1156.44 221.918ZM207.549 225.652C207.549 226.319 206.252 226.986 204.306 226.986C202.685 226.986 201.063 226.319 201.063 225.652C201.063 224.852 202.685 224.319 204.306 224.319C206.252 224.319 207.549 224.852 207.549 225.652ZM1558.56 232.187C1557.59 232.854 1553.7 233.12 1550.13 232.72C1541.05 231.787 1542.02 230.987 1552.08 230.987C1556.62 230.987 1559.54 231.52 1558.56 232.187ZM142.69 244.855C140.744 245.922 136.853 246.456 134.258 246.056C126.799 244.855 129.07 242.988 138.15 242.988C145.284 242.988 145.933 243.255 142.69 244.855ZM1470.35 253.123C1471.33 254.19 1471 254.724 1469.06 254.324C1467.11 253.924 1465.81 252.99 1465.81 252.19C1465.81 250.323 1468.08 250.723 1470.35 253.123Z" fill="#141C15"/>
</svg>
