<?xml version="1.0" encoding="iso-8859-1"?>
<svg version="1.1" xmlns="http://www.w3.org/2000/svg" xmlns:xlink="http://www.w3.org/1999/xlink" x="0px" y="0px"
	 viewBox="0 0 435.371 52.676" style="enable-background:new 0 0 435.371 52.676;" xml:space="preserve">
<g id="mountain-range-silhouette-clip-art-6">
	<path style="stroke-width:0;stroke-miterlimit:10;fill:rgb(95, 80, 58);" d="M2.656,51.676c0.71-0.623,1.623-1.123,2.306-1.353
		c4.465-1.509,9.052-2.232,13.611-3.35c1.362-0.334,2.561-0.799,3.884-1.241c1.014-0.338,2.063-0.116,3.053-0.442
		c1.322-0.435,1.814-1.775,2.916-2.516c0.907-0.61,2.269-1.034,3.288-1.525c4.844-2.331,10.753-3.401,15.286-6.38
		c0.72-0.473,1.263-1.486,2.048-1.83c0.405-0.177,0.998-0.068,1.424-0.175c1.427-0.36,2.111-1.327,3.114-2.369
		c1.622-1.685,3.596-2.722,5.889-3.158c2.294-0.436,4.953,0.845,6.97-0.592c2.197-1.565,2.696-4.943,5.588-5.588
		c1.744-0.389,3.584,0.204,5.36-0.182c1.122-0.244,2.04-0.399,3.192-0.515c1.403-0.141,2.364-0.895,3.536-1.728
		c1.258-0.894,1.947-2.365,3.102-3.225c1.394-1.038,2.586-1.12,3.902-2.434c0.832-0.83,1.885-1.871,3.072-2.226
		c0.77-0.23,2.124-0.275,2.914-0.174c1.492,0.191,1.826,1.041,2.95,1.756c2.699,1.719,5.098-2.227,7.303-3.111
		c0.903-0.362,1.659-0.528,2.489-1.136c1.207-0.886,1.899-2.167,3.232-2.872c1.211-0.641,1.572-0.547,2.605-1.507
		c0.39-0.363,0.671-0.754,1.099-1.085c0.809-0.627,2.363-1.458,3.418-1.662c2.28-0.441,4.468,1.842,6.446,2.763
		c2.065,0.961,4.047,2.026,6.364,2.044c2.181,0.017,4.363-0.002,6.544,0.002c2.74,0.006,4.32-0.234,6.657-1.741
		c2.909-1.876,3.378-0.517,6.076,0.893c1.511,0.79,2.894,1.546,4.644,1.576c0.887,0.015,1.601-0.104,2.462,0.12
		c2.346,0.611,3.863,0.638,6.092-0.826c0.457-0.3,0.994-1.197,1.522-1.343c0.82-0.226,1.196,0.361,1.909,0.475
		c1.446,0.232,2.305-0.061,3.659-0.542c2.093-0.744,3.737-0.487,5.871-0.669c2.264-0.193,4.081-2.05,6.244-2.162
		c2.558-0.133,4.203,2.749,5.923,4.199c2.19,1.846,3.508,4.357,5.534,6.296c1.546,1.479,4.509,2.997,6.66,3.383
		c1.65,0.296,3.482,0.008,5.165,0.04c1.409,0.027,1.94,0.408,3.102,0.995c1.167,0.589,2.807,0.623,4.136,0.346
		c0.865-0.18,1.478-0.749,2.426-0.699c1.738,0.092,2.432,1.699,3.911,2.119c0.819,0.233,2.762,0.259,3.618-0.077
		c2.332-0.916,3.584-3.929,5.825-4.953c1.401-0.64,2.081-0.589,3.295,0.17c1.109,0.694,2.619,1.317,3.523,2.231
		c0.902,0.911,1.325,2.151,2.412,2.951c1.001,0.737,1.957,1.011,2.723,2.101c0.743,1.058,0.586,3.05,1.737,3.757
		c0.858,0.527,2.315-0.042,3.112-0.256c2.056-0.55,3.852,0.105,5.802,1.022c2.022,0.951,4.242,3.107,6.379,3.523
		c0.621,0.121,1.288-0.154,1.931,0.064c0.653,0.222,1.187,0.977,1.728,1.31c0.9,0.554,2.058,1.256,3.018,1.66
		c1.243,0.522,2.481,0.323,3.731,0.889c1.321,0.598,2.606,1.456,3.678,2.426c1.593,1.442,3.088,5.631,5.364,6.032
		c2.715,0.478,4.451-2.707,7.3-1.612c1.117,0.429,1.435,1.474,2.949,0.898c1.232-0.469,1.712-2.257,2.894-2.615
		c1.216-0.368,2.249,1.011,3.505,0.538c1.329-0.5,1.869-1.831,3.505-2.044c0.928-0.121,1.769,0.1,2.703-0.105
		c1.108-0.243,1.956-0.77,3.184-0.579c1.87,0.291,4.544,2.258,6.244,3.254c2.258,1.321,3.332,0.888,5.91,0.409
		c2.245-0.417,4.731-0.154,7.034-0.154c2.148,0,5.32,0.585,7.236-0.381c2.419-1.22,3.775-3.206,6.66-3.101
		c1.197,0.043,1.928,0.51,3.034,0.674c1.097,0.163,2.045-0.359,3.075-0.683c2.271-0.714,4.114-1.405,6.632-1.36
		c1.301,0.023,1.951-0.039,3.043-0.677c1.642-0.959,1.776-1.482,3.505-0.27c1.561-0.763,1.125-0.994,2.759-0.616
		c0.966,0.224,1.08,0.191,2.046,0.027c1.23-0.209,2.235-0.938,3.236-1.593c1.139-0.745,2.344-1.171,3.583-1.747
		c1.818-0.844,3.571-0.694,5.357-1.799c1.69-1.046,3.209-1.781,5.053-2.522c1.912-0.768,3.8-1.296,5.664-2.1
		c1.435-0.619,3.512-0.845,5.052-0.399c1.996,0.578,3.781,4.079,6.085,3.275c0.871-0.304,1.19-1.711,2.062-1.94
		c1.21-0.318,2.147,0.644,2.238,1.785c1.6-0.482,2.481-2.044,4.31-1.903c2.146,0.166,3.655,1.955,5.962,2.146
		c3.196-0.532,3.47,1.962,4.165,4.317c0.808,2.74,1.685,4.015,3.814,5.783c1.226,1.018,1.99,2.626,3.122,3.792
		c0.778,0.801,1.711,1.503,2.375,2.405c1.508,2.051-0.821,2.408,0.46,4.433c1.133,1.79,3.556,3.385,5.432,3.874
		c0.967,0.252,1.473,0.603,2.04,1.086H2.656z"/>
</g>
<g id="Layer_1">
</g>
</svg>
