<?xml version="1.0" encoding="iso-8859-1"?>
<svg version="1.1" xmlns="http://www.w3.org/2000/svg" xmlns:xlink="http://www.w3.org/1999/xlink" x="0px" y="0px"
	 viewBox="0 0 432.829 71.398" style="enable-background:new 0 0 432.829 71.398;" xml:space="preserve">
<g id="mountain-range-silhouette-clip-art-4">
	<path style="stroke-width:0;stroke-miterlimit:10;fill:rgb(126, 104, 70);" d="M1.43,70.398c1.807-4.949,3.486-9.55,3.663-9.758
		c0.945-1.113,2.16-1.851,3.409-2.562c1.809-1.029,3.596-1.486,3.817-3.77c0.105-1.083-0.248-1.815,0.508-2.757
		c0.884-1.102,2.414-0.655,3.264-1.395c0.768-0.668,0.642-1.287,1.112-2.1c0.559-0.967,1.932-2.325,2.864-3.03
		c1.27-0.962,2.304-0.387,3.838-0.652c1.531-0.264,2.167-0.956,3.269-1.897c1.32-1.127,2.376-1.371,4.059-1.314
		c1.597,0.055,3.217,0.833,4.764,0.637c2.389-0.303,4.8-1.911,7.151-2.492c1.696-0.419,4.042-0.36,5.52-1.331
		c0.953-0.626,1.746-1.832,2.566-2.646c1.188-1.18,2.083-2.603,3.213-3.767c0.968-0.997,2.064-1.339,3.298-1.915
		c1.508-0.703,3.081-1.307,4.547-2.096c0.88-0.474,1.813-1.007,2.608-1.619c0.589-0.454,1.364-1.813,1.919-2.064
		c1.703-0.772,4.816,0.978,6.448,1.85c5.866,3.137,11.93,6.168,16.822,10.766c1.575,1.48,2.687,2.844,4.941,3.359
		c1.149,0.263,2.439,0.494,3.628,0.7c2.346,0.408,5.152,0.695,7.269,1.881c2.846,1.595,5.126,5.113,8.567,2.352
		c1.351-1.084,1.987-2.139,3.807-2.348c1.643-0.189,2.569,0.355,4.041,0.962c2.399,0.989,3.204-0.259,5.52-0.794
		c0.767-0.177,1.778,0.052,2.499-0.247c0.522-0.216,0.902-0.873,1.395-1.062c1.641-0.629,2.807,0.625,4.387,0.606
		c1.588-0.02,2.337-1.034,3.928-0.131c0.836,0.474,1.337,1.385,2.042,2.009c0.702,0.622,1.53,1.035,2.253,1.623
		c0.93,0.757,1.854,2.342,2.944,2.824c2.496,1.103,5.592-0.439,7.319-2.026c1.53-1.406,2.217-1.314,3.899-0.474
		c1.418,0.709,2.186,0.624,3.751,0.652c2.098,0.038,2.016-0.222,3.248-1.807c1.055-1.357,1.596-1.789,3.303-1.093
		c1.786,0.729,2.666,1.966,4.758,1.633c1.199-0.191,2.298-0.978,3.449-1.496c1.257-0.566,2.452-1.253,3.75-1.713
		c1.197-0.424,2.555-0.559,3.605-1.341c2.608-1.941,3.74-5.326,7.252-5.907c0.97-0.16,2.112,0.012,3.102,0.029
		c1.28,0.022,1.802-0.34,2.98-0.592c2.224-0.475,5.135,0.671,7.268-0.154c1.421-0.549,1.819-2.299,3.394-2.561
		c1.113-0.185,2.005,0.841,3.102,0.776c1.692-0.101,3.056-1.596,4.443-2.305c1.164-0.595,2.387-0.211,3.634-0.486
		c1.1-0.243,1.998-0.99,3.087-1.201c1.431-0.276,2.637,0.232,3.929,0.536c2.358,0.555,4.65,0.162,6.779-0.831
		c2.7-1.258,5.376-2.253,7.835-3.944c2.421-1.665,3.94-5.305,7.465-4.865c1.508,0.188,1.94,1.707,3.233,2.157
		c1.186,0.412,2.411-0.466,3.751-0.211c1.329,0.253,1.925,1.438,3.358,1.406c1.555-0.034,2.507-1.518,3.913-1.893
		c1.21-0.323,2.14,0.317,3.264,0.708c1.923,0.669,2.311,0.795,3.391-0.797c3.148-4.642,8.861-7.044,13.446-9.915
		c3.584-2.244,7.225-4.244,10.905-6.329c1.583-0.897,3.178-1.756,4.757-2.651c1.627-0.922,1.97-0.599,3.214,0.656
		c2.154,2.174,2.737,5.761,5.498,7.47c1.024,0.634,2.425,0.338,3.596,0.822c1.353,0.559,2.065,1.105,3.596,0.54
		c1.576-0.582,2.131-2.076,4.052-1.72c1.24,0.23,1.764,1.149,2.742,1.865c2.33,1.705,3.551,3.576,5.161,5.951
		c0.965,1.424,1.935,2.905,3.425,3.783c1.234,0.727,2.62,1.299,3.881,2.061c1.254,0.758,2.265,1.801,3.765,2.03
		c1.701,0.26,2.793-0.423,4.401,0.554c2.943,1.788,5.52,4.884,7.638,7.491c1.652,2.034,3.852,2.179,6.146,0.855
		c1.528-0.881,2.656-1.696,4.553-1.042c1.562,0.538,1.878,1.77,3.729,1.071c1.449-0.547,2.046-1.906,3.755-0.839
		c1.256,0.784,1.423,2.234,3.042,2.168c1.579-0.064,2.677-1.452,3.574-2.512c0.993-1.174,1.698-1.464,3.101-2.027
		c2.377-0.953,4.799-1.409,7.223-2.175c2.23-0.705,3.208-1.796,4.694,0.8c0.517,0.904,0.702,1.894,1.363,2.75
		c0.932,1.207,1.791,1.938,3.278,1.965c1.16,0.021,1.606,0.093,2.6,0.634c1.164,0.635,2.487,1.005,3.928,0.683
		c1.524-0.341,1.653-1.02,3.216-0.222c2.704,1.381,4.511,3.946,7.141,5.384v-0.649c1.443,0.152,2.545-1.298,3.798-0.061
		c0.618,0.61,0.804,2.194,1.055,2.959c0.798,2.43,2.171,4.521,3.084,6.841c0.619,1.574,1.738,2.362,2.779,3.629
		c1.079,1.314,1.798,2.426,3.097,3.516c2.379,1.998,1.756,5.122,3.02,7.805c0.652,1.384,1.081,1.147,1.852,2.059
		c0.355,0.419,0.535,1.175,0.794,1.665c0.45,0.853,0.735,1.454,0.959,2.108H1.43z"/>
</g>
<g id="Layer_1">
</g>
</svg>
