<svg width="1768" height="508" viewBox="0 0 1768 508" fill="none" xmlns="http://www.w3.org/2000/svg">
<g filter="url(#filter0_d_3_113)">
<path d="M1314 260L1314.54 261.46L1316 262L1314.54 262.54L1314 264L1313.46 262.54L1312 262L1313.46 261.46L1314 260Z" fill="#9AA4F9"/>
<path d="M1496 193L1496.33 194.312L1497.56 193.753L1496.74 194.83L1497.95 195.445L1496.6 195.476L1496.87 196.802L1496 195.764L1495.13 196.802L1495.4 195.476L1494.05 195.445L1495.26 194.83L1494.44 193.753L1495.67 194.312L1496 193Z" fill="#9AA4F9"/>
<path d="M1284.5 98L1285.06 99.7275H1286.88L1285.41 100.795L1285.97 102.523L1284.5 101.455L1283.03 102.523L1283.59 100.795L1282.12 99.7275H1283.94L1284.5 98Z" fill="#9AA4F9"/>
<path d="M862.5 64L862.865 65.6178L864.268 64.7322L863.382 66.1346L865 66.5L863.382 66.8654L864.268 68.2678L862.865 67.3822L862.5 69L862.135 67.3822L860.732 68.2678L861.618 66.8654L860 66.5L861.618 66.1346L860.732 64.7322L862.135 65.6178L862.5 64Z" fill="#9AA4F9"/>
<path d="M1054.5 362L1055.18 363.825L1057 364.5L1055.18 365.175L1054.5 367L1053.82 365.175L1052 364.5L1053.82 363.825L1054.5 362Z" fill="#9AA4F9"/>
<path d="M455.5 125L456.327 127.023L457.665 128.75L455.5 128.455L453.335 128.75L454.673 127.023L455.5 125Z" fill="#9AA4F9"/>
<path d="M923 497L923.382 498.338L924.732 498L923.764 499L924.732 500L923.382 499.662L923 501L922.618 499.662L921.268 500L922.236 499L921.268 498L922.618 498.338L923 497Z" fill="#9AA4F9"/>
<path d="M1580.5 305L1580.91 306.64L1582.45 305.941L1581.43 307.288L1582.94 308.056L1581.25 308.095L1581.58 309.752L1580.5 308.455L1579.42 309.752L1579.75 308.095L1578.06 308.056L1579.57 307.288L1578.55 305.941L1580.09 306.64L1580.5 305Z" fill="#9AA4F9"/>
<path d="M1661.5 53L1662.18 54.8248L1664 55.5L1662.18 56.1752L1661.5 58L1660.82 56.1752L1659 55.5L1660.82 54.8248L1661.5 53Z" fill="#9AA4F9"/>
<path d="M173.5 64L174.061 65.7275H175.878L174.408 66.7951L174.969 68.5225L173.5 67.4549L172.031 68.5225L172.592 66.7951L171.122 65.7275H172.939L173.5 64Z" fill="#9AA4F9"/>
<path d="M547.5 378L547.865 379.618L549.268 378.732L548.382 380.135L550 380.5L548.382 380.865L549.268 382.268L547.865 381.382L547.5 383L547.135 381.382L545.732 382.268L546.618 380.865L545 380.5L546.618 380.135L545.732 378.732L547.135 379.618L547.5 378Z" fill="#9AA4F9"/>
<path d="M1186.5 58L1187.18 59.8248L1189 60.5L1187.18 61.1752L1186.5 63L1185.82 61.1752L1184 60.5L1185.82 59.8248L1186.5 58Z" fill="#9AA4F9"/>
<path d="M596 7L596.043 8.23727L596.224 7.01258L596.128 8.24686L596.445 7.05014L596.211 8.26592L596.661 7.11223L596.292 8.29422L596.868 7.19806L596.37 8.33139L597.064 7.30655L596.442 8.37697L597.247 7.43634L596.509 8.43038L597.414 7.58579L596.57 8.49096L597.564 7.75302L596.623 8.55793L597.693 7.93594L596.669 8.63047L597.802 8.13223L596.706 8.70766L597.888 8.33944L596.734 8.78852L597.95 8.55496L596.753 8.87204L597.987 8.77607L596.763 8.95717L598 9L596.763 9.04283L597.987 9.22393L596.753 9.12796L597.95 9.44504L596.734 9.21148L597.888 9.66056L596.706 9.29234L597.802 9.86777L596.669 9.36953L597.693 10.0641L596.623 9.44207L597.564 10.247L596.57 9.50904L597.414 10.4142L596.509 9.56962L597.247 10.5637L596.442 9.62303L597.064 10.6934L596.37 9.66861L596.868 10.8019L596.292 9.70578L596.661 10.8878L596.211 9.73408L596.445 10.9499L596.128 9.75314L596.224 10.9874L596.043 9.76273L596 11L595.957 9.76273L595.776 10.9874L595.872 9.75314L595.555 10.9499L595.789 9.73408L595.339 10.8878L595.708 9.70578L595.132 10.8019L595.63 9.66861L594.936 10.6934L595.558 9.62303L594.753 10.5637L595.491 9.56962L594.586 10.4142L595.43 9.50904L594.436 10.247L595.377 9.44207L594.307 10.0641L595.331 9.36953L594.198 9.86777L595.294 9.29234L594.112 9.66056L595.266 9.21148L594.05 9.44504L595.247 9.12796L594.013 9.22393L595.237 9.04283L594 9L595.237 8.95717L594.013 8.77607L595.247 8.87204L594.05 8.55496L595.266 8.78852L594.112 8.33944L595.294 8.70766L594.198 8.13223L595.331 8.63047L594.307 7.93594L595.377 8.55793L594.436 7.75302L595.43 8.49096L594.586 7.58579L595.491 8.43038L594.753 7.43634L595.558 8.37697L594.936 7.30655L595.63 8.33139L595.132 7.19806L595.708 8.29422L595.339 7.11223L595.789 8.26592L595.555 7.05014L595.872 8.24686L595.776 7.01258L595.957 8.23727L596 7Z" fill="#9AA4F9"/>
<path d="M153.5 193L154.175 194.825L156 195.5L154.175 196.175L153.5 198L152.825 196.175L151 195.5L152.825 194.825L153.5 193Z" fill="#9AA4F9"/>
<path d="M8.5 443L8.83677 444.036H9.92658L9.04491 444.677L9.38168 445.714L8.5 445.073L7.61832 445.714L7.95509 444.677L7.07342 444.036H8.16323L8.5 443Z" fill="#9AA4F9"/>
<path d="M1352.5 410L1353.06 411.727H1354.88L1353.41 412.795L1353.97 414.523L1352.5 413.455L1351.03 414.523L1351.59 412.795L1350.12 411.727H1351.94L1352.5 410Z" fill="#9AA4F9"/>
<path d="M668 177L668.81 179.19L671 180L668.81 180.81L668 183L667.19 180.81L665 180L667.19 179.19L668 177Z" fill="#9AA4F9"/>
<path d="M1114 226L1114.5 227.968L1116.35 227.13L1115.12 228.745L1116.92 229.668L1114.9 229.714L1115.3 231.703L1114 230.146L1112.7 231.703L1113.1 229.714L1111.08 229.668L1112.88 228.745L1111.65 227.13L1113.5 227.968L1114 226Z" fill="#9AA4F9"/>
<path d="M1758 240L1758.57 242.008L1760.6 241.5L1759.15 243L1760.6 244.5L1758.57 243.992L1758 246L1757.43 243.992L1755.4 244.5L1756.85 243L1755.4 241.5L1757.43 242.008L1758 240Z" fill="#9AA4F9"/>
</g>
<defs>
<filter id="filter0_d_3_113" x="0.0734253" y="0" width="1767.52" height="508" filterUnits="userSpaceOnUse" color-interpolation-filters="sRGB">
<feFlood flood-opacity="0" result="BackgroundImageFix"/>
<feColorMatrix in="SourceAlpha" type="matrix" values="0 0 0 0 0 0 0 0 0 0 0 0 0 0 0 0 0 0 127 0" result="hardAlpha"/>
<feOffset/>
<feGaussianBlur stdDeviation="3.5"/>
<feComposite in2="hardAlpha" operator="out"/>
<feColorMatrix type="matrix" values="0 0 0 0 0.245792 0 0 0 0 0.8675 0 0 0 0 0.830198 0 0 0 0.25 0"/>
<feBlend mode="normal" in2="BackgroundImageFix" result="effect1_dropShadow_3_113"/>
<feBlend mode="normal" in="SourceGraphic" in2="effect1_dropShadow_3_113" result="shape"/>
</filter>
</defs>
</svg>
